<svg width="65" height="65" viewBox="0 0 65 65" fill="none" xmlns="http://www.w3.org/2000/svg">
<path d="M43.9278 20.5375C46.264 20.5375 47.9683 22.7185 47.1864 24.7075L45.7248 28.4255C45.6401 28.6411 45.8248 28.8775 46.078 28.8775V28.8775C46.3493 28.8775 46.535 29.1455 46.415 29.3638L31.4609 56.5821C29.5814 60.0031 24.1645 59.8288 22.1831 56.2835L5.90155 27.1504C5.42145 26.2913 5.94465 25.2876 6.95271 25.1337L7.21538 25.0936C8.38522 24.9151 8.74584 23.5611 7.81979 22.8243V22.8243C6.8077 22.0191 7.34866 20.5376 8.65479 20.5376L43.9278 20.5375Z" fill="black"/>
<ellipse cx="26.8859" cy="20.0045" rx="22.3812" ry="20.0045" fill="black"/>
<ellipse cx="26.5" cy="19.5" rx="13.5" ry="12.5" fill="#45CCDE"/>
</svg>
