<svg width="513" height="513" viewBox="0 0 513 513" fill="none" xmlns="http://www.w3.org/2000/svg">
<path d="M43.3868 0.22937C44.4626 0.222653 45.5383 0.215936 46.6467 0.209015C50.1919 0.190066 53.737 0.186112 57.2823 0.18396C59.757 0.177529 62.2318 0.170801 64.7065 0.163788C69.8913 0.151823 75.076 0.148106 80.2608 0.149292C86.886 0.149495 93.5107 0.122204 100.136 0.0877476C105.247 0.0654466 110.359 0.0614555 115.47 0.0625114C117.911 0.0601599 120.353 0.0513617 122.794 0.0358467C126.219 0.0161244 129.642 0.0220502 133.067 0.0340576C134.063 0.0228186 135.06 0.0115796 136.087 0C148.021 0.105674 157.005 4.43819 165.579 12.4847C176.349 23.5962 177.363 36.1867 178.131 50.8898C179.389 74.8806 182.328 98.109 189.142 121.235C193.541 136.182 197.048 150.799 189.485 165.52C187.591 168.27 185.542 170.89 183.485 173.52C182.286 175.088 181.088 176.657 179.892 178.227C179.261 179.051 178.631 179.875 177.981 180.724C171.432 189.285 164.966 197.898 158.596 206.593C152.676 214.658 146.593 222.596 140.485 230.52C144.369 238.557 148.563 246.29 153.235 253.895C153.848 254.895 154.461 255.895 155.092 256.926C159.906 264.716 164.948 272.229 170.485 279.52C170.914 280.084 171.342 280.649 171.784 281.23C185.881 299.709 201.08 317.198 219.485 331.52C220.423 332.297 221.36 333.074 222.325 333.875C240.459 348.811 260.892 361.313 281.485 372.52C287.511 368.619 293.24 364.482 298.86 360.02C306.017 354.392 313.285 348.945 320.639 343.578C325.531 339.996 330.317 336.311 335.048 332.52C347.76 322.413 358.143 318.156 374.485 319.52C379.182 320.42 383.676 321.776 388.235 323.207C402.187 327.318 416.13 330.234 430.485 332.52C431.261 332.646 432.037 332.772 432.837 332.902C442.246 334.389 451.646 334.857 461.156 335.179C476.61 335.704 489.756 337.252 501.462 348.403C505.403 352.679 508.32 357.122 510.485 362.52C510.826 363.33 511.167 364.14 511.519 364.974C512.832 369.793 512.78 374.335 512.776 379.308C512.786 380.921 512.786 380.921 512.796 382.567C512.815 386.118 512.819 389.668 512.821 393.219C512.828 395.695 512.835 398.171 512.842 400.648C512.854 405.838 512.857 411.029 512.856 416.22C512.856 422.853 512.883 429.485 512.918 436.118C512.94 441.234 512.944 446.35 512.943 451.465C512.945 453.91 512.954 456.354 512.969 458.798C512.989 462.228 512.983 465.656 512.971 469.085C512.983 470.083 512.994 471.082 513.005 472.11C512.897 484.348 508.339 493.712 499.724 502.27C491.784 509.407 483.383 512.832 472.614 512.821C471.495 512.829 471.495 512.829 470.353 512.838C467.918 512.85 465.483 512.844 463.048 512.832C462.205 512.83 461.363 512.828 460.495 512.826C362.005 512.424 264.652 476.83 172.221 405.951C170.684 404.684 169.129 403.438 167.571 402.196C155.853 392.845 145.191 382.316 134.559 371.768C133.154 370.376 131.746 368.988 130.338 367.599C125.027 362.295 120.118 356.826 115.447 350.949C113.617 348.683 111.714 346.531 109.735 344.395C103.529 337.476 98.0385 329.965 92.4855 322.52C91.9366 321.785 91.3878 321.051 90.8224 320.294C33.2469 242.87 0.802715 146.68 0.047953 50.2074C0.0358278 49.3999 0.0237025 48.5925 0.0112098 47.7605C-0.167652 33.8213 1.71343 23.0531 11.4855 12.5199C20.8686 3.1992 30.3979 0.217654 43.3868 0.22937ZM30.6339 35.598C28.856 40.1214 29.0452 44.4522 29.1105 49.2699C29.1192 50.3554 29.1279 51.4408 29.1368 52.5592C30.7766 148.358 66.2542 241.418 141.485 335.52C142.299 336.447 143.112 337.374 143.95 338.328C150.084 345.16 156.522 351.689 162.985 358.207C163.852 359.087 164.718 359.966 165.61 360.872C170.835 366.103 176.235 370.925 182.021 375.529C184.378 377.433 186.627 379.412 188.86 381.457C194.473 386.486 200.446 391.023 206.485 395.52C207.518 396.289 207.518 396.289 208.57 397.073C218.188 404.204 227.933 410.995 238.205 417.151C239.814 418.117 241.419 419.09 243.02 420.069C301.735 455.892 367.15 475.829 435.485 482.52C436.786 482.654 438.087 482.788 439.427 482.926C446.945 483.59 454.498 483.708 462.041 483.825C462.189 483.828 462.337 483.83 462.485 483.832C463.574 483.862 464.662 483.892 465.783 483.923C471.825 483.967 475.867 483.864 480.485 479.52C484.18 474.887 483.918 470.532 483.889 464.868C483.896 463.901 483.903 462.935 483.91 461.939C483.929 458.748 483.925 455.558 483.919 452.368C483.924 450.147 483.929 447.927 483.935 445.706C483.944 441.053 483.941 436.401 483.931 431.748C483.92 425.788 483.94 419.829 483.969 413.869C483.988 409.283 483.987 404.698 483.982 400.113C483.982 397.915 483.988 395.718 484 393.521C484.015 390.447 484.004 387.375 483.987 384.301C483.997 383.396 484.007 382.49 484.016 381.557C483.952 376.053 483.166 372.881 479.485 368.52C475.564 365.396 472.309 365.088 467.368 364.895C466.683 364.863 465.998 364.831 465.293 364.799C463.827 364.731 462.361 364.669 460.894 364.612C457.027 364.456 453.163 364.246 449.298 364.036C448.148 363.974 448.148 363.974 446.976 363.91C422.752 362.556 398.221 357.947 375.231 350.173C369.774 348.442 365.807 348.208 360.485 350.52C357.527 352.301 357.527 352.301 354.798 354.645C353.682 355.543 352.565 356.44 351.446 357.336C350.829 357.837 350.211 358.337 349.574 358.852C345.416 362.172 341.161 365.366 336.923 368.582C336.004 369.283 335.084 369.983 334.137 370.704C328.708 374.839 323.263 378.951 317.79 383.028C314.942 385.163 312.124 387.337 309.306 389.512C308.37 390.232 307.434 390.952 306.47 391.694C304.599 393.134 302.732 394.577 300.868 396.026C289.006 405.143 289.006 405.143 281.499 404.823C278.111 404.313 275.266 402.889 272.298 401.27C271.621 400.915 270.945 400.56 270.248 400.194C267.981 398.991 265.733 397.759 263.485 396.52C262.678 396.081 261.872 395.641 261.04 395.189C199.373 361.467 131.456 302.431 108.485 233.52C107.473 223.196 114.165 215.949 120.173 208.27C121.625 206.39 123.077 204.51 124.528 202.629C125.566 201.292 125.566 201.292 126.624 199.928C128.774 197.146 130.886 194.34 132.985 191.52C136.39 186.959 139.841 182.437 143.302 177.919C146.074 174.293 148.835 170.659 151.591 167.02C152.781 165.45 153.973 163.882 155.169 162.317C156.601 160.436 158.015 158.544 159.423 156.645C160.195 155.616 160.967 154.588 161.763 153.528C165.048 147.792 164.684 143.656 163.009 137.442C162.302 135.048 161.585 132.658 160.86 130.27C154.519 108.563 150.24 86.2849 149.202 63.6651C149.102 61.4968 148.994 59.3291 148.885 57.1613C148.74 54.2776 148.627 51.3951 148.534 48.5094C148.435 40.6214 148.435 40.6214 145.161 33.6918C141.537 30.7497 138.944 29.2742 134.248 29.2525C132.991 29.2397 132.991 29.2397 131.708 29.2266C130.341 29.228 130.341 29.228 128.947 29.2294C127.981 29.2227 127.014 29.2159 126.019 29.209C122.823 29.19 119.627 29.1861 116.431 29.184C114.209 29.1775 111.987 29.1708 109.765 29.1638C105.106 29.1518 100.447 29.1481 95.7887 29.1493C89.821 29.1495 83.8537 29.1222 77.8861 29.0877C73.2964 29.0655 68.7069 29.0615 64.1172 29.0625C61.9171 29.0602 59.7171 29.0513 57.5172 29.0358C54.4387 29.0162 51.3613 29.022 48.2828 29.0341C47.3756 29.0228 46.4684 29.0116 45.5337 29C39.0245 29.0647 35.0937 30.5925 30.6339 35.598Z" fill="#45CCDE"/>
<path d="M30.6339 35.598C28.856 40.1214 29.0452 44.4522 29.1105 49.2699L29.1368 52.5592C30.7766 148.358 66.2542 241.418 141.485 335.52L143.95 338.328C150.084 345.16 156.522 351.689 162.985 358.207L165.61 360.872C170.835 366.103 176.235 370.925 182.021 375.529C184.378 377.433 186.627 379.412 188.86 381.457C194.473 386.486 200.446 391.023 206.485 395.52L208.57 397.073C218.188 404.204 227.933 410.995 238.205 417.151C239.814 418.117 241.419 419.09 243.02 420.069C301.735 455.892 367.15 475.829 435.485 482.52L439.427 482.926C446.945 483.59 454.498 483.708 462.041 483.825L462.485 483.832L465.783 483.923C471.825 483.967 475.867 483.864 480.485 479.52C484.18 474.887 483.918 470.532 483.889 464.868L483.91 461.939C483.929 458.748 483.925 455.558 483.919 452.368C483.924 450.147 483.929 447.927 483.935 445.706C483.944 441.053 483.941 436.401 483.931 431.748C483.92 425.788 483.94 419.829 483.969 413.869C483.988 409.283 483.987 404.698 483.982 400.113C483.982 397.915 483.988 395.718 484 393.521C484.015 390.447 484.004 387.375 483.987 384.301L484.016 381.557C483.952 376.053 483.166 372.881 479.485 368.52C475.564 365.396 472.309 365.088 467.368 364.895L465.293 364.799C463.827 364.731 462.361 364.669 460.894 364.612C457.027 364.456 453.163 364.246 449.298 364.036L446.976 363.91C422.752 362.556 398.221 357.947 375.231 350.173C369.774 348.442 365.807 348.208 360.485 350.52C357.527 352.301 357.527 352.301 354.798 354.645C353.682 355.543 352.565 356.44 351.446 357.336L349.574 358.852C345.416 362.172 341.161 365.366 336.923 368.582L334.137 370.704C328.708 374.839 323.263 378.951 317.79 383.028C314.942 385.163 312.124 387.337 309.306 389.512L306.47 391.694C304.599 393.134 302.732 394.577 300.868 396.026C289.006 405.143 289.006 405.143 281.499 404.823C278.111 404.313 275.266 402.889 272.298 401.27L270.248 400.194C267.981 398.991 265.733 397.759 263.485 396.52L261.04 395.189C199.373 361.467 131.456 302.431 108.485 233.52C107.473 223.196 114.165 215.949 120.173 208.27C121.625 206.39 123.077 204.51 124.528 202.629L126.624 199.928C128.774 197.146 130.886 194.34 132.985 191.52C136.39 186.959 139.841 182.437 143.302 177.919C146.074 174.293 148.835 170.659 151.591 167.02C152.781 165.45 153.973 163.882 155.169 162.317C156.601 160.436 158.015 158.544 159.423 156.645L161.763 153.528C165.048 147.792 164.684 143.656 163.009 137.442C162.302 135.048 161.585 132.658 160.86 130.27C154.519 108.563 150.24 86.2849 149.202 63.6651C149.102 61.4968 148.994 59.3291 148.885 57.1613C148.74 54.2776 148.627 51.3951 148.534 48.5094C148.435 40.6214 148.435 40.6214 145.161 33.6918C141.537 30.7497 138.944 29.2742 134.248 29.2525L131.708 29.2266L128.947 29.2294L126.019 29.209C122.823 29.19 119.627 29.1861 116.431 29.184C114.209 29.1775 111.987 29.1708 109.765 29.1638C105.106 29.1518 100.447 29.1481 95.7887 29.1493C89.821 29.1495 83.8537 29.1222 77.8861 29.0877C73.2964 29.0655 68.7069 29.0615 64.1172 29.0625C61.9171 29.0602 59.7171 29.0513 57.5172 29.0358C54.4387 29.0162 51.3613 29.022 48.2828 29.0341L45.5337 29C39.0245 29.0647 35.0937 30.5925 30.6339 35.598Z" fill="#45CCDE"/>
</svg>
