<svg width="65" height="65" viewBox="0 0 65 65" fill="none" xmlns="http://www.w3.org/2000/svg">
<path d="M62.5777 32.0388C62.5777 48.905 48.905 62.5777 32.0388 62.5777C15.1727 62.5777 1.5 48.905 1.5 32.0388C1.5 15.1727 15.1727 1.5 32.0388 1.5C48.905 1.5 62.5777 15.1727 62.5777 32.0388Z" fill="white" stroke="black" stroke-width="3"/>
<path d="M40.4595 32.0388C40.4595 40.7767 39.3428 48.6275 37.5754 54.2434C36.6889 57.0602 35.6646 59.2306 34.5977 60.6644C33.5101 62.1261 32.5739 62.5777 31.8763 62.5777C31.1786 62.5777 30.2424 62.1261 29.1548 60.6644C28.0879 59.2306 27.0636 57.0602 26.1771 54.2434C24.4097 48.6275 23.293 40.7767 23.293 32.0388C23.293 23.3009 24.4097 15.4502 26.1771 9.83426C27.0636 7.01749 28.0879 4.84707 29.1548 3.41321C30.2424 1.95152 31.1786 1.5 31.8763 1.5C32.5739 1.5 33.5101 1.95152 34.5977 3.41321C35.6646 4.84707 36.6889 7.01749 37.5754 9.83426C39.3428 15.4502 40.4595 23.3009 40.4595 32.0388Z" fill="white" stroke="black" stroke-width="3"/>
<path d="M4.63721 19.3906H59.4405" stroke="black" stroke-width="3"/>
<path d="M2.10767 33.2109H61.9697" stroke="black" stroke-width="3"/>
<line x1="5.52515" y1="46.8047" x2="58.5527" y2="46.8047" stroke="black" stroke-width="3"/>
<path d="M45.4097 37.1347C51.3251 37.4447 55.8691 42.4913 55.5591 48.4066C55.2491 54.3219 50.2024 58.866 44.2871 58.5559C38.3718 58.2459 33.8278 53.1993 34.1378 47.284C34.4478 41.3687 39.4944 36.8247 45.4097 37.1347Z" fill="white" stroke="#953434" stroke-width="3"/>
<path d="M37.7156 55.0703L52.3803 41.0639" stroke="#953434" stroke-width="3"/>
<path d="M36.6274 40.9688L51.3822 54.8803" stroke="#953434" stroke-width="3"/>
</svg>
